<?xml version="1.0" encoding="iso-8859-1"?>
<!-- Generator: Adobe Illustrator 18.0.0, SVG Export Plug-In . SVG Version: 6.00 Build 0)  -->
<!DOCTYPE svg PUBLIC "-//W3C//DTD SVG 1.1//EN" "http://www.w3.org/Graphics/SVG/1.1/DTD/svg11.dtd">
<svg version="1.1" id="Capa_1" xmlns="http://www.w3.org/2000/svg" xmlns:xlink="http://www.w3.org/1999/xlink" x="0px" y="0px"
	 viewBox="0 0 68 68" style="enable-background:new 0 0 68 68;" xml:space="preserve">
<g>
	<path style="fill:#ffffff;" d="M36.068,1.095C35.603,0.41,34.829,0,34,0s-1.603,0.41-2.067,1.095
		c-2.177,3.204-21.267,31.642-21.267,43.572C10.667,57.533,21.134,68,34,68s23.333-10.467,23.333-23.333
		C57.333,32.736,38.245,4.299,36.068,1.095z M34,63c-10.109,0-18.334-8.225-18.334-18.333c0-7.875,11.786-27.598,18.334-37.648
		c6.547,10.051,18.333,29.772,18.333,37.648C52.333,54.775,44.109,63,34,63z"/>
	<path style="fill:#ffffff;" d="M46.102,34.426c-0.574-1.256-2.056-1.811-3.312-1.237c-1.257,0.573-1.811,2.056-1.237,3.312
		c2.58,5.656,2.78,7.682,2.78,8.167C44.333,50.364,39.698,55,34,55c-1.381,0-2.5,1.119-2.5,2.5S32.619,60,34,60
		c8.455,0,15.334-6.878,15.334-15.333C49.333,42.542,48.277,39.192,46.102,34.426z"/>
	<path style="fill:#ffffff;" d="M35.807,25.321c0.262,0.486,0.576,1.07,1.024,1.887c0.455,0.828,1.311,1.296,2.193,1.296
		c0.407,0,0.82-0.1,1.202-0.309c1.21-0.665,1.651-2.186,0.987-3.396c-0.439-0.799-0.747-1.371-1.004-1.849
		c-0.647-1.203-1.004-1.865-2.302-4.005c-0.716-1.182-2.255-1.558-3.434-0.842c-1.181,0.716-1.558,2.253-0.842,3.434
		C34.864,23.568,35.16,24.117,35.807,25.321z"/>
</g>
<g>
</g>
<g>
</g>
<g>
</g>
<g>
</g>
<g>
</g>
<g>
</g>
<g>
</g>
<g>
</g>
<g>
</g>
<g>
</g>
<g>
</g>
<g>
</g>
<g>
</g>
<g>
</g>
<g>
</g>
</svg>
