<?xml version="1.0" encoding="UTF-8" standalone="no"?>
<svg
   xmlns:dc="http://purl.org/dc/elements/1.1/"
   xmlns:cc="http://creativecommons.org/ns#"
   xmlns:rdf="http://www.w3.org/1999/02/22-rdf-syntax-ns#"
   xmlns:svg="http://www.w3.org/2000/svg"
   xmlns="http://www.w3.org/2000/svg"
   xmlns:sodipodi="http://sodipodi.sourceforge.net/DTD/sodipodi-0.dtd"
   xmlns:inkscape="http://www.inkscape.org/namespaces/inkscape"
   viewBox="0 0 30 30"
   version="1.1"
   id="svg8490"
   sodipodi:docname="logo_new.svg"
   inkscape:version="0.92.4 (5da689c313, 2019-01-14)">
  <metadata
     id="metadata8494">
    <rdf:RDF>
      <cc:Work
         rdf:about="">
        <dc:format>image/svg+xml</dc:format>
        <dc:type
           rdf:resource="http://purl.org/dc/dcmitype/StillImage" />
      </cc:Work>
    </rdf:RDF>
  </metadata>
  <sodipodi:namedview
     pagecolor="#ffffff"
     bordercolor="#666666"
     borderopacity="1"
     objecttolerance="10"
     gridtolerance="10"
     guidetolerance="10"
     inkscape:pageopacity="0"
     inkscape:pageshadow="2"
     inkscape:window-width="1366"
     inkscape:window-height="705"
     id="namedview8492"
     showgrid="false"
     inkscape:zoom="25.361563"
     inkscape:cx="5.4287324"
     inkscape:cy="22.493699"
     inkscape:window-x="-8"
     inkscape:window-y="-8"
     inkscape:window-maximized="1"
     inkscape:current-layer="layer2"
     inkscape:snap-page="false" />
  <defs
     id="defs8475">
    <style
       id="style8473">.cls-1,.cls-3{fill:none;stroke:#fff;stroke-miterlimit:10;}.cls-1{stroke-width:1.00px;}.cls-2{fill:#fff;}.cls-3{stroke-width:0.5px;}</style>
  </defs>
  <title
     id="title8477">30x30 white thick logo</title>
  <g
     inkscape:groupmode="layer"
     id="layer1"
     inkscape:label="Object">
    <rect
       style="opacity:1;fill:#007bff;fill-opacity:0.99665552;stroke-width:1.39430308;paint-order:stroke fill markers"
       id="rect8496"
       width="29.944239"
       height="30"
       x="0.055761632"
       y="0.055762105" />
    <rect
       y="0.055762105"
       x="0.055761632"
       height="30"
       width="29.944239"
       id="rect4761"
       style="opacity:1;fill:#007bff;fill-opacity:0.99665552;stroke-width:1.39430308;paint-order:stroke fill markers" />
  </g>
  <g
     inkscape:groupmode="layer"
     id="layer2"
     inkscape:label="Logo">
    <g
       id="Layer_2"
       data-name="Layer 2"
       transform="matrix(1.3168715,0,0,1.3168715,-4.6793441,-5.589233)"
       style="opacity:1">
      <path
         class="cls-1"
         d="m 19.6,5.82 v 1 a 3.4,3.4 0 0 1 -0.28,0.24 c -0.37,0.28 -0.61,0.29 -0.86,0.58 a 0.54,0.54 0 0 0 -0.13,0.23 0.57,0.57 0 0 0 0.05,0.43 c 0,0.06 0.07,0.15 0.31,0.35 A 4.35,4.35 0 0 0 19.17,9 l 3.63,2.66 a 2.47,2.47 0 0 1 0.29,0.21 2.12,2.12 0 0 1 0.57,0.7 1.63,1.63 0 0 1 0.14,0.74 4.12,4.12 0 0 1 -0.19,1.32 l -1.7,8.51 a 2,2 0 0 1 -0.1,0.46 2.25,2.25 0 0 1 -0.28,0.6 2.62,2.62 0 0 1 -0.63,0.64 5.2,5.2 0 0 1 -1.17,0.79 6.83,6.83 0 0 1 -1.2,0.4 11.17,11.17 0 0 1 -1.43,0.32 l -0.9,0.08 H 15.47 15 14.27 L 13.36,26.35 A 10.64,10.64 0 0 1 11.93,26 7.32,7.32 0 0 1 10.72,25.6 5.44,5.44 0 0 1 9.55,24.81 3.1,3.1 0 0 1 8.92,24.17 2.63,2.63 0 0 1 8.64,23.57 4.41,4.41 0 0 1 8.54,23.11 L 6.84,14.6 A 4.05,4.05 0 0 1 6.66,13.28 1.77,1.77 0 0 1 6.79,12.54 L 6.88,12.37 A 2.9,2.9 0 0 1 7.37,11.84 2.51,2.51 0 0 1 7.65,11.63 L 11.29,9 c 0.2,-0.13 0.36,-0.26 0.48,-0.35 A 1.11,1.11 0 0 0 12.08,8.3 0.6,0.6 0 0 0 12.14,8.08 0.5,0.5 0 0 0 12.14,7.87 0.54,0.54 0 0 0 12,7.65 C 11.75,7.36 11.5,7.35 11.14,7.07 A 2.28,2.28 0 0 1 10.86,6.83 v -1"
         id="path8479"
         inkscape:connector-curvature="0"
         style="opacity:1;fill:none;stroke:#ffffff;stroke-width:1.07588828;stroke-miterlimit:10;stroke-dasharray:none" />
      <path
         class="cls-1"
         d="M 15,4.86 H 14.06 C 13.583707,4.86901 13.108882,4.915826 12.64,5 c -0.66,0.14 -1.81,0.48 -1.78,0.8 0,0.17 0.35,0.27 0.74,0.38 0.327215,0.090071 0.692217,0.3018246 1.030301,0.3315071 l 1.53,0.08 h 0.83 0.55 0.77 l 1.53,-0.08 C 18.178423,6.482099 18.482847,6.2703413 18.81,6.18 19.19,6.07 19.54,5.97 19.55,5.8 19.55,5.48 18.42,5.14 17.76,5 17.2912,4.9152326 16.816327,4.8684141 16.34,4.86 h -1 z"
         id="path8481"
         inkscape:connector-curvature="0"
         style="fill:none;stroke:#ffffff;stroke-width:1.07588828;stroke-miterlimit:10;stroke-dasharray:none"
         sodipodi:nodetypes="ccccccccccccccccc" />
      <path
         class="cls-1"
         d="m 6.92,12.27 c 1.0288392,0.767838 2.1971978,1.328242 3.44,1.65 0.563291,0.130488 1.134509,0.224021 1.71,0.28 1.413634,0.164617 2.838001,0.218115 4.26,0.16 1.286186,-0.03235 2.56737,-0.172845 3.83,-0.42 0.787849,-0.162087 0.59614,-0.09638 1.360354,-0.347287"
         id="path8483"
         inkscape:connector-curvature="0"
         style="fill:none;stroke:#ffffff;stroke-width:1.07588828;stroke-miterlimit:10;stroke-dasharray:none"
         sodipodi:nodetypes="cccccc" />
      <path
         class="cls-3"
         d="m 12.09,8.29 h 0.22 a 10.9,10.9 0 0 0 1.43,0.24 13.92,13.92 0 0 0 1.48,0.08 c 0.44,0 0.75,0 1.16,0 a 9.09,9.09 0 0 0 1,-0.11 7.59,7.59 0 0 0 1,-0.2"
         id="path8487"
         inkscape:connector-curvature="0"
         style="fill:none;stroke:#ffffff;stroke-width:0.69164246;stroke-miterlimit:10;stroke-dasharray:none" />
    </g>
    <g
       style="opacity:1"
       transform="matrix(1.3168715,0,0,1.3168715,-4.6793441,-5.589233)"
       data-name="Layer 2"
       id="g4771">
      <path
         style="opacity:1;fill:none;stroke:#ffffff;stroke-width:1.07588828;stroke-miterlimit:10;stroke-dasharray:none"
         inkscape:connector-curvature="0"
         id="path4763"
         d="m 19.6,5.82 v 1 a 3.4,3.4 0 0 1 -0.28,0.24 c -0.37,0.28 -0.61,0.29 -0.86,0.58 a 0.54,0.54 0 0 0 -0.13,0.23 0.57,0.57 0 0 0 0.05,0.43 c 0,0.06 0.07,0.15 0.31,0.35 A 4.35,4.35 0 0 0 19.17,9 l 3.63,2.66 a 2.47,2.47 0 0 1 0.29,0.21 2.12,2.12 0 0 1 0.57,0.7 1.63,1.63 0 0 1 0.14,0.74 4.12,4.12 0 0 1 -0.19,1.32 l -1.7,8.51 a 2,2 0 0 1 -0.1,0.46 2.25,2.25 0 0 1 -0.28,0.6 2.62,2.62 0 0 1 -0.63,0.64 5.2,5.2 0 0 1 -1.17,0.79 6.83,6.83 0 0 1 -1.2,0.4 11.17,11.17 0 0 1 -1.43,0.32 l -0.9,0.08 H 15.47 15 14.27 L 13.36,26.35 A 10.64,10.64 0 0 1 11.93,26 7.32,7.32 0 0 1 10.72,25.6 5.44,5.44 0 0 1 9.55,24.81 3.1,3.1 0 0 1 8.92,24.17 2.63,2.63 0 0 1 8.64,23.57 4.41,4.41 0 0 1 8.54,23.11 L 6.84,14.6 A 4.05,4.05 0 0 1 6.66,13.28 1.77,1.77 0 0 1 6.79,12.54 L 6.88,12.37 A 2.9,2.9 0 0 1 7.37,11.84 2.51,2.51 0 0 1 7.65,11.63 L 11.29,9 c 0.2,-0.13 0.36,-0.26 0.48,-0.35 A 1.11,1.11 0 0 0 12.08,8.3 0.6,0.6 0 0 0 12.14,8.08 0.5,0.5 0 0 0 12.14,7.87 0.54,0.54 0 0 0 12,7.65 C 11.75,7.36 11.5,7.35 11.14,7.07 A 2.28,2.28 0 0 1 10.86,6.83 v -1"
         class="cls-1" />
      <path
         sodipodi:nodetypes="ccccccccccccccccc"
         style="fill:none;stroke:#ffffff;stroke-width:1.07588828;stroke-miterlimit:10;stroke-dasharray:none"
         inkscape:connector-curvature="0"
         id="path4765"
         d="M 15,4.86 H 14.06 C 13.583707,4.86901 13.108882,4.915826 12.64,5 c -0.66,0.14 -1.81,0.48 -1.78,0.8 0,0.17 0.35,0.27 0.74,0.38 0.327215,0.090071 0.692217,0.3018246 1.030301,0.3315071 l 1.53,0.08 h 0.83 0.55 0.77 l 1.53,-0.08 C 18.178423,6.482099 18.482847,6.2703413 18.81,6.18 19.19,6.07 19.54,5.97 19.55,5.8 19.55,5.48 18.42,5.14 17.76,5 17.2912,4.9152326 16.816327,4.8684141 16.34,4.86 h -1 z"
         class="cls-1" />
      <path
         sodipodi:nodetypes="cccccc"
         style="fill:none;stroke:#ffffff;stroke-width:1.07588828;stroke-miterlimit:10;stroke-dasharray:none"
         inkscape:connector-curvature="0"
         id="path4767"
         d="m 6.92,12.27 c 1.0288392,0.767838 2.1971978,1.328242 3.44,1.65 0.563291,0.130488 1.134509,0.224021 1.71,0.28 1.413634,0.164617 2.838001,0.218115 4.26,0.16 1.286186,-0.03235 2.56737,-0.172845 3.83,-0.42 0.787849,-0.162087 0.59614,-0.09638 1.360354,-0.347287"
         class="cls-1" />
      <path
         style="fill:none;stroke:#ffffff;stroke-width:0.69164246;stroke-miterlimit:10;stroke-dasharray:none"
         inkscape:connector-curvature="0"
         id="path4769"
         d="m 12.09,8.29 h 0.22 a 10.9,10.9 0 0 0 1.43,0.24 13.92,13.92 0 0 0 1.48,0.08 c 0.44,0 0.75,0 1.16,0 a 9.09,9.09 0 0 0 1,-0.11 7.59,7.59 0 0 0 1,-0.2"
         class="cls-3" />
    </g>
  </g>
</svg>
